<?xml version="1.0" standalone="no"?><!DOCTYPE svg PUBLIC "-//W3C//DTD SVG 1.1//EN" "http://www.w3.org/Graphics/SVG/1.1/DTD/svg11.dtd"><svg t="1764582453725" class="icon" viewBox="0 0 1024 1024" version="1.1" xmlns="http://www.w3.org/2000/svg" p-id="10137" xmlns:xlink="http://www.w3.org/1999/xlink" width="200" height="200"><path d="M674.133333 525.653333m-252.586666 0a252.586667 252.586667 0 1 0 505.173333 0 252.586667 252.586667 0 1 0-505.173333 0Z" fill="#1296db" opacity=".3" p-id="10138"></path><path d="M964.266667 923.306667h-904.533334c-13.653333 0-25.6-11.946667-25.6-25.6s11.946667-25.6 25.6-25.6h904.533334c13.653333 0 25.6 11.946667 25.6 25.6s-11.946667 25.6-25.6 25.6zM204.8 696.32H59.733333c-13.653333 0-25.6-11.946667-25.6-25.6s11.946667-25.6 25.6-25.6h126.293334L307.2 322.56c3.413333-8.533333 10.24-15.36 18.773333-17.066667 8.533333-1.706667 18.773333 1.706667 23.893334 8.533334l153.6 180.906666 148.48-378.88c3.413333-10.24 13.653333-15.36 23.893333-17.066666 10.24 0 20.48 6.826667 23.893333 15.36l180.906667 423.253333h85.333333c13.653333 0 25.6 11.946667 25.6 25.6s-11.946667 25.6-25.6 25.6h-102.4c-10.24 0-18.773333-6.826667-23.893333-15.36l-162.133333-380.586667-141.653334 360.106667c-3.413333 8.533333-10.24 13.653333-20.48 15.36-8.533333 1.706667-17.066667-1.706667-23.893333-8.533333l-151.893333-179.2-112.64 296.96c-3.413333 11.946667-11.946667 18.773333-22.186667 18.773333z" fill="#1296db" p-id="10139"></path></svg>